<svg xmlns="http://www.w3.org/2000/svg" viewBox="0 0 1366.76 578.5">
    <defs>
        <style>.cls-1{fill:none;stroke:#fff;stroke-miterlimit:10;stroke-width:4px;}.cls-2{fill:#fff;}</style>
    </defs>
    <g id="Layer_2" data-name="Layer 2">
        <g id="computer_svg" data-name="computer svg">
            <rect class="cls-1" x="316.35" y="1" width="470.78" height="291"/>
            <rect class="cls-1" x="416.24" y="-78.89" width="271" height="450.78" transform="translate(698.24 -405.24) rotate(90)"/>
            <rect class="cls-1" x="361" y="313.64" width="380.76" height="235.36"/>
            <rect class="cls-1" x="443.7" y="250.94" width="215.36" height="360.76" transform="translate(982.7 -120.06) rotate(90)"/>
            <rect class="cls-1" x="726.93" y="128.29" width="470.78" height="291" transform="translate(1236.1 -688.53) rotate(90)"/>
            <rect class="cls-1" x="826.82" y="48.4" width="271" height="450.78" transform="translate(1924.63 547.58) rotate(180)"/>
            <path class="cls-1" d="M343.5,567.5h416a0,0,0,0,1,0,0v0a10,10,0,0,1-10,10h-396a10,10,0,0,1-10-10v0A0,0,0,0,1,343.5,567.5Z"/>
            <line class="cls-1" y1="533.5" x2="360.5" y2="533.5"/>
            <line class="cls-1" x1="1366.76" y1="533.5" x2="742" y2="533.5"/>
            <polygon class="cls-1" points="759.5 567.5 343.5 567.5 361.5 548.5 741.5 548.5 759.5 567.5"/>
            <polygon class="cls-1" points="816.5 150.5 816.5 173.5 807.5 173.5 807.5 533.5 793.5 533.5 793.5 173.5 787.5 173.5 787.5 150.5 816.5 150.5"/>
            <rect class="cls-2" x="368" y="65" width="344" height="8" rx="4"/>
            <rect class="cls-2" x="368" y="95" width="236" height="8" rx="4"/>
            <rect class="cls-2" x="368" y="126" width="289" height="8" rx="4"/>
            <rect class="cls-2" x="368" y="159" width="344" height="8" rx="4"/>
            <rect class="cls-2" x="368" y="189" width="236" height="8" rx="4"/>
            <rect class="cls-2" x="368" y="220" width="289" height="8" rx="4"/>
            <rect class="cls-2" x="413.76" y="349.5" width="252" height="8" rx="4"/>
            <rect class="cls-2" x="413.76" y="379.5" width="144" height="8" rx="4"/>
            <rect class="cls-2" x="413.76" y="410.5" width="197" height="8" rx="4"/>
            <rect class="cls-2" x="413.76" y="443.5" width="252" height="8" rx="4"/>
            <rect class="cls-2" x="413.76" y="473.5" width="144" height="8" rx="4"/>
            <rect class="cls-2" x="413.76" y="504.5" width="197" height="8" rx="4"/>
            <rect class="cls-2" x="861.76" y="92.5" width="197" height="8" rx="4"/>
            <rect class="cls-2" x="861.76" y="122.5" width="89" height="8" rx="4"/>
            <rect class="cls-2" x="861.76" y="153.5" width="142" height="8" rx="4"/>
            <rect class="cls-2" x="861.76" y="186.5" width="197" height="8" rx="4"/>
            <rect class="cls-2" x="861.76" y="216.5" width="89" height="8" rx="4"/>
            <rect class="cls-2" x="861.76" y="247.5" width="142" height="8" rx="4"/>
            <rect class="cls-2" x="861.76" y="279.5" width="197" height="8" rx="4"/>
            <rect class="cls-2" x="861.76" y="309.5" width="89" height="8" rx="4"/>
            <rect class="cls-2" x="861.76" y="340.5" width="142" height="8" rx="4"/>
            <rect class="cls-2" x="861.76" y="373.5" width="197" height="8" rx="4"/>
            <rect class="cls-2" x="861.76" y="403.5" width="89" height="8" rx="4"/>
            <rect class="cls-2" x="861.76" y="434.5" width="142" height="8" rx="4"/>
        </g>
    </g>
</svg>