<svg xmlns="http://www.w3.org/2000/svg" viewBox="0 0 1145.75 128.97">
    <defs>
        <style>
            .cls-1{fill:white;}.cls-2{fill:none;}
        </style>
    </defs>
    <title>
        Asset 2ldpi
    </title>
    <g id="Layer_2" data-name="Layer 2">
        <g id="Layer_1-2" data-name="Layer 1">
            <rect width="32.42" height="24.88" x="1074.52" y="100.07" class="cls-1" transform="translate(1203.24 -978.22) rotate(90)"/>
            <polygon points="1145.75 0.22 1107.25 75.22 1074.79 75.22 1036.29 0.22 1063.04 0.22 1091.88 57.57 1120.71 0.22 1145.75 0.22" class="cls-1"/>
            <path d="M346.77,81.74l26.91,47H349.33L323.69,83.94l-11-19.2,16.84,0c.58.06-.6,0,0,0s-.58.06,0,0C341.09,63.87,352,54.18,352,42.4A22.43,22.43,0,0,0,329.53,20h-34V128.35H275.79V.22h59.89a42.32,42.32,0,0,1,11.09,81.52Z" class="cls-1"/>
            <path d="M329.53,64.77c-.58.06.6,0,0,0s.58.06,0,0Z" class="cls-1"/>
            <rect width="86.5" height="19.75" y="0.22" class="cls-1"/>
            <rect width="86.5" height="19.75" y="55.72" class="cls-1"/>
            <rect width="86.5" height="19.75" y="109.22" class="cls-1"/>
            <rect width="89" height="19.75" x="551.67" y="34.85" class="cls-1" transform="translate(640.89 -551.45) rotate(90)"/>
            <rect width="86.5" height="19.75" x="586.29" y="109.22" class="cls-1"/>
            <rect width="58.75" height="19.75" x="194.63" y="19.72" class="cls-1" transform="translate(253.6 -194.4) rotate(90)"/>
            <path d="M233.88,75.85l-19.75-.38a32.75,32.75,0,1,1-65.5,0V.22H128.88V75.85a52.5,52.5,0,0,0,105,0Z" class="cls-1"/>
            <path d="M331.36,0A41.1,41.1,0,0,0,327,.22h8.64A41.1,41.1,0,0,0,331.36,0Z" class="cls-2"/>
            <path d="M478.75.22a64.07,64.07,0,1,0,64.06,64.06A64.06,64.06,0,0,0,478.75.22Zm0,107.63a43.57,43.57,0,1,1,43.56-43.57A43.57,43.57,0,0,1,478.75,107.85Z" class="cls-1"/>
            <polygon points="821.58 88.47 798.91 88.47 777.33 47.8 735.83 128.35 713.17 128.35 777.33 0.22 821.58 88.47" class="cls-1"/>
            <polygon points="830.39 108.02 840.75 128.35 818.08 128.35 807.29 108.02 830.39 108.02" class="cls-1"/>
            <path d="M993,.74v128H973.29V56.25a.84.84,0,0,0-1.44-.59l-40,40.81-64.75-65.1a11.05,11.05,0,0,1-3.2-7.35L863,.22l64.83,66.92,45.46-46.29Z" class="cls-1"/>
        </g>
    </g>
</svg>
